<svg xmlns="http://www.w3.org/2000/svg" viewBox="0 0 192 192">
  <defs>
    <linearGradient id="grad1" x1="0%" y1="0%" x2="100%" y2="100%">
      <stop offset="0%" style="stop-color:#66BB6A;stop-opacity:1" />
      <stop offset="100%" style="stop-color:#4CAF50;stop-opacity:1" />
    </linearGradient>
  </defs>
  <rect width="192" height="192" rx="20" fill="url(#grad1)"/>
  <g transform="translate(48, 48)">
    <!-- Keyboard outline -->
    <rect x="0" y="0" width="96" height="96" rx="4" fill="none" stroke="#ffffff" stroke-width="2"/>
    <!-- Keys -->
    <rect x="4" y="4" width="14" height="14" rx="1" fill="#ffffff"/>
    <rect x="21" y="4" width="14" height="14" rx="1" fill="#ffffff"/>
    <rect x="38" y="4" width="14" height="14" rx="1" fill="#ffffff"/>
    <rect x="55" y="4" width="14" height="14" rx="1" fill="#ffffff"/>
    <rect x="72" y="4" width="14" height="14" rx="1" fill="#ffffff"/>

    <rect x="4" y="21" width="14" height="14" rx="1" fill="#ffffff"/>
    <rect x="21" y="21" width="14" height="14" rx="1" fill="#ffffff"/>
    <rect x="38" y="21" width="14" height="14" rx="1" fill="#ffffff"/>
    <rect x="55" y="21" width="14" height="14" rx="1" fill="#ffffff"/>
    <rect x="72" y="21" width="14" height="14" rx="1" fill="#ffffff"/>

    <!-- Speed indicator -->
    <circle cx="48" cy="60" r="20" fill="none" stroke="#ffffff" stroke-width="2"/>
    <circle cx="48" cy="60" r="12" fill="#ffffff"/>
    <text x="48" y="66" text-anchor="middle" font-size="8" fill="#4CAF50" font-weight="bold">⚡</text>
  </g>
</svg>
