<svg xmlns="http://www.w3.org/2000/svg" viewBox="0 0 512 512">
  <defs>
    <linearGradient id="grad1" x1="0%" y1="0%" x2="100%" y2="100%">
      <stop offset="0%" style="stop-color:#66BB6A;stop-opacity:1" />
      <stop offset="100%" style="stop-color:#4CAF50;stop-opacity:1" />
    </linearGradient>
  </defs>
  <rect width="512" height="512" rx="50" fill="url(#grad1)"/>
  <g transform="translate(96, 96)">
    <!-- Keyboard outline -->
    <rect x="0" y="0" width="320" height="320" rx="16" fill="none" stroke="#ffffff" stroke-width="6"/>
    <!-- Keys Row 1 -->
    <rect x="16" y="16" width="48" height="48" rx="4" fill="#ffffff"/>
    <rect x="76" y="16" width="48" height="48" rx="4" fill="#ffffff"/>
    <rect x="136" y="16" width="48" height="48" rx="4" fill="#ffffff"/>
    <rect x="196" y="16" width="48" height="48" rx="4" fill="#ffffff"/>
    <rect x="256" y="16" width="48" height="48" rx="4" fill="#ffffff"/>

    <!-- Keys Row 2 -->
    <rect x="16" y="76" width="48" height="48" rx="4" fill="#ffffff"/>
    <rect x="76" y="76" width="48" height="48" rx="4" fill="#ffffff"/>
    <rect x="136" y="76" width="48" height="48" rx="4" fill="#ffffff"/>
    <rect x="196" y="76" width="48" height="48" rx="4" fill="#ffffff"/>
    <rect x="256" y="76" width="48" height="48" rx="4" fill="#ffffff"/>

    <!-- Speed indicator -->
    <circle cx="160" cy="200" r="60" fill="none" stroke="#ffffff" stroke-width="6"/>
    <circle cx="160" cy="200" r="36" fill="#ffffff"/>
    <text x="160" y="224" text-anchor="middle" font-size="28" fill="#4CAF50" font-weight="bold">⚡</text>
  </g>
</svg>
